<svg xmlns="http://www.w3.org/2000/svg" viewBox="0 0 119.63 39.99"><defs><style>.cls-1{fill:#b7b7b7;}.cls-2{fill:#fff;}</style></defs><title>appstore</title><g id="Warstwa_2" data-name="Warstwa 2"><g id="Warstwa_1-2" data-name="Warstwa 1"><g id="Layer_2" data-name="Layer 2"><g id="livetype"><path class="cls-1" d="M110.11,0H7.5a13.39,13.39,0,0,0-2,.18A6.74,6.74,0,0,0,3.6.81,6.33,6.33,0,0,0,2,2,6.07,6.07,0,0,0,.8,3.62a6.74,6.74,0,0,0-.63,1.9,12.18,12.18,0,0,0-.17,2v25a12.18,12.18,0,0,0,.17,2A6.8,6.8,0,0,0,.8,36.39,6,6,0,0,0,2,38,6.07,6.07,0,0,0,3.6,39.18a6.74,6.74,0,0,0,1.9.63,13.39,13.39,0,0,0,2,.18H112.12a13.39,13.39,0,0,0,2-.18,7.14,7.14,0,0,0,1.91-.63A6.07,6.07,0,0,0,117.65,38a6.68,6.68,0,0,0,1.18-1.61,7.12,7.12,0,0,0,.62-1.91,13.39,13.39,0,0,0,.18-2v-25a13.39,13.39,0,0,0-.18-2,7.05,7.05,0,0,0-.62-1.9A6.73,6.73,0,0,0,117.65,2,6.47,6.47,0,0,0,116,.82a7.14,7.14,0,0,0-1.91-.63,13.39,13.39,0,0,0-2-.18h-2Z"/><path d="M8.42,39.13h-.9A11.68,11.68,0,0,1,5.65,39,5.86,5.86,0,0,1,4,38.4a4.93,4.93,0,0,1-1.39-1,5.12,5.12,0,0,1-1-1.4A5.69,5.69,0,0,1,1,34.34a11.7,11.7,0,0,1-.16-1.87V7.55A11.7,11.7,0,0,1,1,5.68,5.6,5.6,0,0,1,1.58,4a5.12,5.12,0,0,1,1-1.4A5.58,5.58,0,0,1,4,1.6a5.69,5.69,0,0,1,1.66-.55A11.83,11.83,0,0,1,7.52.89H112.11a12.85,12.85,0,0,1,1.86.16,6.18,6.18,0,0,1,1.67.55A5.48,5.48,0,0,1,118.05,4a6,6,0,0,1,.54,1.65,13.14,13.14,0,0,1,.17,1.88V32.47a12.72,12.72,0,0,1-.17,1.85,5.83,5.83,0,0,1-.54,1.67,5.71,5.71,0,0,1-1,1.39,5.12,5.12,0,0,1-1.4,1A5.79,5.79,0,0,1,114,39a11.7,11.7,0,0,1-1.87.16H8.42Z"/><path id="_Compound_Path_" data-name=" Compound Path " class="cls-2" d="M27.67,24.7a11.12,11.12,0,0,1-1.52,3.09c-.89,1.34-1.83,2.65-3.32,2.67s-1.93-.85-3.59-.85-2.19.83-3.58.88-2.5-1.42-3.43-2.75C10.38,25,9,20.11,10.87,16.77A5.32,5.32,0,0,1,15.34,14c1.42,0,2.74,1,3.61,1s2.49-1.19,4.16-1a5.08,5.08,0,0,1,4,2.16,4.92,4.92,0,0,0-2.36,4.15A4.75,4.75,0,0,0,27.67,24.7ZM22,12.21a4.87,4.87,0,0,0,1.11-3.49,5,5,0,0,0-3.21,1.66,4.64,4.64,0,0,0-1.14,3.36A4.11,4.11,0,0,0,22,12.21Z"/><path class="cls-2" d="M42.28,27.14H37.55L36.41,30.5h-2l4.48-12.42H41L45.46,30.5h-2ZM38,25.59h3.75L40,20.14h0Zm17.1.38c0,2.81-1.51,4.62-3.78,4.62A3.08,3.08,0,0,1,48.51,29v4.48h-1.9v-12h1.8V23a3.24,3.24,0,0,1,2.89-1.6c2.33,0,3.84,1.76,3.84,4.6Zm-1.91,0c0-1.83-1-3-2.39-3s-2.38,1.23-2.38,3,1,3.05,2.38,3.05,2.39-1.2,2.39-3ZM65.1,26c0,2.81-1.5,4.62-3.77,4.62A3.08,3.08,0,0,1,58.48,29v4.48h-1.9v-12h1.8V23a3.21,3.21,0,0,1,2.88-1.6c2.33,0,3.84,1.76,3.84,4.6Zm-1.91,0c0-1.83-.94-3-2.39-3s-2.37,1.23-2.37,3,1,3,2.37,3,2.39-1.18,2.39-3Zm8.5,1c.14,1.23,1.33,2,3,2s2.69-.81,2.69-1.92-.68-1.54-2.29-1.94l-1.61-.39c-2.28-.55-3.33-1.61-3.33-3.34,0-2.15,1.86-3.62,4.51-3.62s4.43,1.47,4.49,3.62H77.24c-.11-1.24-1.14-2-2.63-2s-2.52.75-2.52,1.86c0,.87.65,1.39,2.25,1.79l1.37.33c2.55.6,3.61,1.63,3.61,3.44,0,2.33-1.86,3.78-4.8,3.78-2.75,0-4.61-1.42-4.73-3.66Zm11.64-7.7v2.14h1.72v1.47H83.33v5c0,.77.34,1.13,1.1,1.13.2,0,.41,0,.61,0V30.5a5.55,5.55,0,0,1-1,.09c-1.84,0-2.55-.69-2.55-2.45V22.91H80.14V21.44h1.32V19.3ZM86,26c0-2.85,1.68-4.64,4.3-4.64s4.29,1.79,4.29,4.64S93,30.61,90.34,30.61,86,28.83,86,26Zm6.7,0c0-1.95-.9-3.11-2.4-3.11S88,24,88,26s.89,3.11,2.4,3.11,2.36-1.18,2.36-3.11Zm3.43-4.53H98V23a2.16,2.16,0,0,1,2.18-1.63,2.73,2.73,0,0,1,.64.07v1.74A2.32,2.32,0,0,0,100,23a1.87,1.87,0,0,0-2,1.74,1.7,1.7,0,0,0,0,.39V30.5H96.17Zm13.19,6.4c-.25,1.64-1.85,2.77-3.89,2.77-2.64,0-4.27-1.77-4.27-4.6s1.64-4.68,4.19-4.68,4.08,1.72,4.08,4.47v.63h-6.4v.12a2.36,2.36,0,0,0,2.15,2.55h.29a2.05,2.05,0,0,0,2.09-1.27Zm-6.28-2.71h4.53a2.17,2.17,0,0,0-2-2.29h-.17a2.29,2.29,0,0,0-2.31,2.26Z"/><path id="_Compound_Path_2" data-name=" Compound Path 2" class="cls-2" d="M38,8.73a1.89,1.89,0,0,1,2,1.77v.23a1.9,1.9,0,0,1-1.79,2H36.58v2h-.93v-6Zm-1.4,3.14h1.16c.8,0,1.27-.41,1.27-1.15a1.11,1.11,0,0,0-1.27-1.17H36.58Zm4.24.57a2.13,2.13,0,1,1,4.25-.29,1.41,1.41,0,0,1,0,.29,2.13,2.13,0,0,1-4.25.29A1.41,1.41,0,0,1,40.82,12.44Zm3.33,0c0-1-.43-1.54-1.2-1.54s-1.21.57-1.21,1.54S42.17,14,43,14,44.15,13.42,44.15,12.44ZM47.22,14h-.06v.71H46.3V8.44h.89v2.47h.07a1.49,1.49,0,0,1,1.39-.79c1.14,0,1.86.89,1.86,2.32s-.73,2.33-1.86,2.33A1.58,1.58,0,0,1,47.22,14Zm0-1.54c0,.94.47,1.52,1.22,1.52s1.2-.57,1.2-1.53-.45-1.52-1.2-1.52-1.21.58-1.22,1.52Zm4.41-3.6a.55.55,0,0,1,.56-.54h0a.54.54,0,1,1,0,1.08h0a.56.56,0,0,1-.58-.52Zm.14,1.33h.88V14.7h-.88Zm6.12,3.29a1.82,1.82,0,0,1-2,1.3,2,2,0,0,1-2.1-1.89,2.07,2.07,0,0,1,0-.43,2.07,2.07,0,0,1,1.79-2.33l.29,0c1.25,0,2,.85,2,2.27v.31H54.72v.05A1.19,1.19,0,0,0,55.84,14h.08A1.09,1.09,0,0,0,57,13.48ZM54.72,12H57a1.1,1.1,0,0,0-1-1.17h-.1A1.16,1.16,0,0,0,54.72,12Zm4.37-1.84H60v.7a1.21,1.21,0,0,1,1.22-.77,1.28,1.28,0,0,1,.39,0V11H61.1A1.05,1.05,0,0,0,60,12V14.7h-.89Zm3.41,3.9L65,11H62.52v-.76H66v.65l-2.42,3V14h2.45v.75H62.5Zm12,.61h-.92l-.93-3.32h-.07l-.93,3.32h-.91l-1.24-4.51h.9l.8,3.44h.07l.93-3.44H73l.92,3.44H74l.8-3.44h.89Z"/></g></g></g></g></svg>