<svg xmlns="http://www.w3.org/2000/svg" viewBox="0 0 486 486"><defs><style>.cls-1{fill:#1782ac;}.cls-2{fill:#48ada6;}</style></defs><title>automatyzacja</title><g id="Warstwa_2" data-name="Warstwa 2"><g id="Capa_1" data-name="Capa 1"><path class="cls-1" d="M243,0H35A35,35,0,0,0,0,35V390H6V54H272V70h6V35A35,35,0,0,0,243,0Zm29,48H6V35A29,29,0,0,1,35,6H243a29,29,0,0,1,29,29Z"/><path class="cls-1" d="M0,416v35a35,35,0,0,0,35,35H243a35,35,0,0,0,35-35V416Zm272,35a29,29,0,0,1-29,29H35A29,29,0,0,1,6,451V422H272Z"/><rect class="cls-1" x="104" y="448" width="70" height="6"/><path class="cls-1" d="M432,134h54v-4.24L436.24,80H328V246H486V160h-6v80H334V86h98Zm6-6V90.24L475.76,128Z"/><rect class="cls-1" x="448" y="208" width="6" height="6"/><rect class="cls-1" x="360" y="208" width="62" height="6"/><rect class="cls-1" x="360" y="176" width="94" height="6"/><rect class="cls-1" x="360" y="144" width="46" height="6"/><rect class="cls-1" x="360" y="112" width="46" height="6"/><path class="cls-1" d="M136,278h54v-4.24L140.24,224H32V390H190V304h-6v80H38V230h98Zm6-6V234.24L179.76,272Z"/><rect class="cls-1" x="152" y="352" width="6" height="6"/><rect class="cls-1" x="64" y="352" width="62" height="6"/><rect class="cls-1" x="64" y="320" width="94" height="6"/><rect class="cls-1" x="64" y="288" width="46" height="6"/><rect class="cls-1" x="64" y="256" width="46" height="6"/><polygon class="cls-2" points="350 310 227.11 310 273.16 349.47 269.25 354.02 214.39 307 269.25 259.98 273.16 264.53 227.11 304 350 304 350 310"/><rect class="cls-2" x="376" y="304" width="6" height="6"/><polygon class="cls-2" points="303.61 163 248.75 210.02 244.84 205.47 290.89 166 168 166 168 160 290.89 160 244.84 120.53 248.75 115.98 303.61 163"/><rect class="cls-2" x="136" y="160" width="6" height="6"/><rect class="cls-2" x="408" y="304" width="6" height="6"/><rect class="cls-2" x="104" y="160" width="6" height="6"/><rect class="cls-2" x="440" y="304" width="6" height="6"/><rect class="cls-2" x="72" y="160" width="6" height="6"/></g></g></svg>