<svg xmlns="http://www.w3.org/2000/svg" width="1245" height="667.84" viewBox="0 0 1245 667.84">
  <metadata><?xpacket begin="﻿" id="W5M0MpCehiHzreSzNTczkc9d"?>
<x:xmpmeta xmlns:x="adobe:ns:meta/" x:xmptk="Adobe XMP Core 5.6-c142 79.160924, 2017/07/13-01:06:39        ">
   <rdf:RDF xmlns:rdf="http://www.w3.org/1999/02/22-rdf-syntax-ns#">
      <rdf:Description rdf:about=""/>
   </rdf:RDF>
</x:xmpmeta>
                                                                                                    
                                                                                                    
                                                                                                    
                                                                                                    
                                                                                                    
                                                                                                    
                                                                                                    
                                                                                                    
                                                                                                    
                                                                                                    
                                                                                                    
                                                                                                    
                                                                                                    
                                                                                                    
                                                                                                    
                                                                                                    
                                                                                                    
                                                                                                    
                                                                                                    
                                                                                                    
                           
<?xpacket end="w"?></metadata>
<defs>
    <style>
      .cls-1 {
        fill: #f4f9fe;
        fill-rule: evenodd;
      }
    </style>
  </defs>
  <path id="Elipsa_1_kopia_2" data-name="Elipsa 1 kopia 2" class="cls-1" d="M741.96,1812.56c43.585-2.39,90.379-.42,180.916-2.91,89.224-1.88,222.2-8.23,407.964-13.14,179.52-4.08,411.83-6.73,609.29,10.36,196.9,16.68,358.94,53.11,384.98,117.61,32.8,63.1-75,147.31-243.2,225.57-167.5,78.69-395.41,151.44-586.51,201.65-196.68,51.84-356.57,81.14-467.76,96.18-113.3,15.03-177.887,15.8-232.8,10.34a469.986,469.986,0,0,1-138.665-37.71c-42.608-18.97-83.5-44.2-117.693-73.82-34.224-29.62-61.762-63.65-78.379-100.39-17.069-36.82-23.217-76.35-25.1-118.56,0.314-84.21,34.116-158.88,94.186-218.27C589.572,1850.04,662.7,1814.59,741.96,1812.56Z" transform="translate(-435 -1793.47)"/>
</svg>
