<svg xmlns="http://www.w3.org/2000/svg" width="1108" height="668" viewBox="0 0 1108 668">
  <metadata><?xpacket begin="﻿" id="W5M0MpCehiHzreSzNTczkc9d"?>
<x:xmpmeta xmlns:x="adobe:ns:meta/" x:xmptk="Adobe XMP Core 5.6-c142 79.160924, 2017/07/13-01:06:39        ">
   <rdf:RDF xmlns:rdf="http://www.w3.org/1999/02/22-rdf-syntax-ns#">
      <rdf:Description rdf:about=""/>
   </rdf:RDF>
</x:xmpmeta>
                                                                                                    
                                                                                                    
                                                                                                    
                                                                                                    
                                                                                                    
                                                                                                    
                                                                                                    
                                                                                                    
                                                                                                    
                                                                                                    
                                                                                                    
                                                                                                    
                                                                                                    
                                                                                                    
                                                                                                    
                                                                                                    
                                                                                                    
                                                                                                    
                                                                                                    
                                                                                                    
                           
<?xpacket end="w"?></metadata>
<defs>
    <style>
      .cls-1 {
        fill: #f4f9fe;
        fill-rule: evenodd;
      }
    </style>
  </defs>
  <path id="Elipsa_1_kopia_3" data-name="Elipsa 1 kopia 3" class="cls-1" d="M801.04,2806.09c-43.586-2.39-90.38-.42-180.916-2.91-89.229-1.88-222.2-8.23-407.962-13.14-179.519-4.08-411.836-6.73-609.293,10.37-196.9,16.68-358.936,53.12-384.983,117.63-32.793,63.12,75,147.34,243.206,225.62,167.5,78.72,395.411,151.48,586.512,201.7,196.676,51.86,356.571,81.16,467.753,96.21,113.3,15.03,177.89,15.8,232.8,10.33a469.668,469.668,0,0,0,138.664-37.71c42.609-18.98,83.5-44.21,117.7-73.84,34.22-29.63,61.76-63.66,78.38-100.41,17.07-36.83,23.21-76.37,25.1-118.59-0.31-84.23-34.12-158.92-94.19-218.33C953.428,2843.58,880.3,2808.13,801.04,2806.09Z" transform="translate(0 -2787)"/>
</svg>
