<svg xmlns="http://www.w3.org/2000/svg" xmlns:xlink="http://www.w3.org/1999/xlink" viewBox="0 0 135 40"><defs><style>.cls-1{fill:#a6a6a6;}.cls-2{fill:#fff;}.cls-3{fill:url(#Gradient_bez_nazwy);}.cls-4{fill:url(#Gradient_bez_nazwy_2);}.cls-5{fill:url(#Gradient_bez_nazwy_3);}.cls-6{fill:url(#Gradient_bez_nazwy_4);}</style><linearGradient id="Gradient_bez_nazwy" x1="21.81" y1="906.72" x2="5.03" y2="923.5" gradientTransform="translate(0 -898)" gradientUnits="userSpaceOnUse"><stop offset="0" stop-color="#00a0ff"/><stop offset="0.01" stop-color="#00a1ff"/><stop offset="0.26" stop-color="#00beff"/><stop offset="0.51" stop-color="#00d2ff"/><stop offset="0.76" stop-color="#00dfff"/><stop offset="1" stop-color="#00e3ff"/></linearGradient><linearGradient id="Gradient_bez_nazwy_2" x1="33.83" y1="918" x2="9.64" y2="918" gradientTransform="translate(0 -898)" gradientUnits="userSpaceOnUse"><stop offset="0" stop-color="#ffe000"/><stop offset="0.41" stop-color="#ffbd00"/><stop offset="0.78" stop-color="orange"/><stop offset="1" stop-color="#ff9c00"/></linearGradient><linearGradient id="Gradient_bez_nazwy_3" x1="24.83" y1="920.3" x2="2.07" y2="943.05" gradientTransform="translate(0 -898)" gradientUnits="userSpaceOnUse"><stop offset="0" stop-color="#ff3a44"/><stop offset="1" stop-color="#c31162"/></linearGradient><linearGradient id="Gradient_bez_nazwy_4" x1="7.3" y1="898.18" x2="17.46" y2="908.34" gradientTransform="translate(0 -898)" gradientUnits="userSpaceOnUse"><stop offset="0" stop-color="#32a071"/><stop offset="0.07" stop-color="#2da771"/><stop offset="0.48" stop-color="#15cf74"/><stop offset="0.8" stop-color="#06e775"/><stop offset="1" stop-color="#00f076"/></linearGradient></defs><title>google-play</title><g id="Warstwa_2" data-name="Warstwa 2"><g id="Warstwa_1-2" data-name="Warstwa 1"><g id="Layer_2" data-name="Layer 2"><g id="artwork"><rect width="135" height="40" rx="5" ry="5"/><path class="cls-1" d="M130,.8A4.2,4.2,0,0,1,134.2,5V35a4.2,4.2,0,0,1-4.2,4.2H5A4.2,4.2,0,0,1,.8,35h0V5A4.2,4.2,0,0,1,5,.8H130m0-.8H5A5,5,0,0,0,0,5V35a5,5,0,0,0,5,5H130a5,5,0,0,0,5-5V5A5,5,0,0,0,130,0Z"/><path class="cls-2" d="M68.14,21.75A4.26,4.26,0,1,0,72.41,26a4.19,4.19,0,0,0-4.13-4.25Zm0,6.83a2.58,2.58,0,1,1,2.39-2.75.91.91,0,0,1,0,.17,2.46,2.46,0,0,1-2.34,2.58Zm-9.32-6.83A4.26,4.26,0,1,0,63.09,26,4.19,4.19,0,0,0,59,21.75Zm0,6.83a2.58,2.58,0,1,1,2.39-2.75.91.91,0,0,1,0,.17,2.46,2.46,0,0,1-2.34,2.58ZM47.74,23.06v1.8h4.32a3.77,3.77,0,0,1-1,2.27,4.45,4.45,0,0,1-3.34,1.32,4.8,4.8,0,1,1,0-9.6A4.65,4.65,0,0,1,51,20.14l1.27-1.27a6.29,6.29,0,0,0-4.53-1.82,6.61,6.61,0,0,0-.51,13.21h.51a5.84,5.84,0,0,0,6.17-6.08,7,7,0,0,0-.09-1.12Zm45.31,1.4a3.92,3.92,0,0,0-7.65,1.28,2.26,2.26,0,0,0,0,.26,4.23,4.23,0,0,0,7.76,2.37l-1.45-1a2.42,2.42,0,0,1-2.09,1.17,2.14,2.14,0,0,1-2.06-1.29l5.69-2.35Zm-5.8,1.42a2.34,2.34,0,0,1,2.17-2.48h.06a1.64,1.64,0,0,1,1.57.9ZM82.63,30H84.5V17.5H82.63Zm-3.06-7.3H79.5a2.92,2.92,0,0,0-2.24-.95,4.26,4.26,0,0,0,0,8.51,2.87,2.87,0,0,0,2.24-1h.07v.61c0,1.63-.87,2.5-2.27,2.5a2.35,2.35,0,0,1-2.15-1.51l-1.62.67a4,4,0,0,0,3.77,2.52c2.19,0,4-1.29,4-4.43V22H79.57Zm-2.15,5.88a2.58,2.58,0,0,1,0-5.15,2.38,2.38,0,0,1,2.28,2.49V26a2.38,2.38,0,0,1-2.17,2.57ZM101.81,17.5H97.33V30H99.2V25.26h2.61a3.89,3.89,0,1,0,.56-7.76A5.23,5.23,0,0,0,101.81,17.5Zm0,6H99.2V19.24h2.65a2.14,2.14,0,0,1,0,4.28h0Zm11.54-1.79A3.49,3.49,0,0,0,110,23.62l1.65.69a2.06,2.06,0,0,1,3.71.67v.15a4.14,4.14,0,0,0-1.95-.48c-1.78,0-3.6,1-3.6,2.82a2.89,2.89,0,0,0,3,2.76h.09A2.64,2.64,0,0,0,115.32,29h.06v1h1.8V25.19c0-2.19-1.66-3.46-3.79-3.46Zm-.23,6.85c-.61,0-1.46-.31-1.46-1.06,0-1,1.06-1.34,2-1.34a3.38,3.38,0,0,1,1.7.42,2.26,2.26,0,0,1-2.2,2ZM123.74,22l-2.14,5.42h-.06L119.32,22h-2l3.33,7.58-1.9,4.21h2L125.82,22Zm-16.8,8h1.86V17.5h-1.86ZM42.17,13H41.4V7h2.05a1.86,1.86,0,0,1,1.32.51,1.63,1.63,0,0,1,.55,1.28,1.66,1.66,0,0,1-.55,1.27,1.86,1.86,0,0,1-1.32.51H42.17Zm0-3.17h1.29a1,1,0,0,0,.82-1.73l0,0a1,1,0,0,0-.78-.32H42.17Zm9,2.39a3.1,3.1,0,0,1-4.4,0h0A3,3,0,0,1,45.92,10a3,3,0,0,1,.88-2.22,3.1,3.1,0,0,1,4.4,0h0A3.11,3.11,0,0,1,52.09,10a3,3,0,0,1-.89,2.22Zm-3.83-.5A2.21,2.21,0,0,0,49,12.4a2.18,2.18,0,0,0,1.63-.68A2.35,2.35,0,0,0,51.3,10a2.35,2.35,0,0,0-.67-1.72A2.18,2.18,0,0,0,49,7.6a2.24,2.24,0,0,0-1.63.68A2.38,2.38,0,0,0,46.71,10a2.38,2.38,0,0,0,.66,1.72ZM53.17,13V7h2.17a1.83,1.83,0,0,1,1.22.46,1.53,1.53,0,0,1,.51,1.17,1.28,1.28,0,0,1-.22.76,1.34,1.34,0,0,1-.59.49,1.42,1.42,0,0,1,.73.52,1.3,1.3,0,0,1,.28.85,1.58,1.58,0,0,1-.54,1.22,1.81,1.81,0,0,1-1.27.49Zm.77-3.43h1.4a.89.89,0,0,0,.7-.29.92.92,0,0,0,.26-.63A.89.89,0,0,0,56.05,8a.86.86,0,0,0-.68-.28H53.94Zm0,2.69h1.55a.91.91,0,0,0,.72-.31,1,1,0,0,0,.28-.68,1,1,0,0,0-.29-.67,1,1,0,0,0-.74-.31H53.94Zm4.37.74V7h.77v6ZM64,7.74H61.23v1.9h2.46v.72H61.23v1.9H64V13H60.5V7H64ZM65.17,13V7h2a1.86,1.86,0,0,1,1.32.51,1.64,1.64,0,0,1,.56,1.28,1.73,1.73,0,0,1-.41,1.11,1.77,1.77,0,0,1-1,.6L69.32,13h-.91l-1.62-2.43h-.85V13Zm.77-3.15h1.24a1.1,1.1,0,0,0,.79-.3,1,1,0,0,0,.33-.76,1.11,1.11,0,0,0-.3-.73,1,1,0,0,0-.78-.32H65.94ZM69.85,13v-.8L73,7.74H70V7h4v.8l-3.19,4.46H74V13Zm6.9,0v-.8l3.19-4.46H76.88V7h4v.8l-3.19,4.46h3.22V13Z"/><path class="cls-3" d="M10.44,7.54A2,2,0,0,0,10,8.94V31.06a1.94,1.94,0,0,0,.47,1.4l.07.08L22.9,20.15v-.3L10.51,7.47Z"/><path class="cls-4" d="M27,24.28l-4.1-4.13v-.3L27,15.72l.09.06L32,18.56c1.4.79,1.4,2.09,0,2.89l-4.89,2.78Z"/><path class="cls-5" d="M27.12,24.23,22.9,20,10.44,32.46a1.62,1.62,0,0,0,2.07.07l14.61-8.3"/><path class="cls-6" d="M27.12,15.78,12.51,7.48a1.6,1.6,0,0,0-2.07.06L22.9,20Z"/></g></g></g></g></svg>