<?xml version="1.0" encoding="utf-8"?>
<!-- Generator: Adobe Illustrator 19.0.0, SVG Export Plug-In . SVG Version: 6.00 Build 0)  -->
<svg version="1.1" id="Warstwa_1" xmlns="http://www.w3.org/2000/svg" xmlns:xlink="http://www.w3.org/1999/xlink" x="0px" y="0px"
	 viewBox="-2 -81.2 249.8 302.9" style="enable-background:new -2 -81.2 249.8 302.9;" xml:space="preserve">
<style type="text/css">
	.st0{fill:#8ACADF;}
	.st1{fill:#FFFFFF;}
	.st2{fill:#F6F6F6;}
</style>
<title>pitapp_logo_SVG</title>
<g id="Warstwa_2">
	<g id="Layer_1">
		<path class="st0" d="M44.6,10.3v130.6c3.1,2.5,6.4,4.9,9.8,7.1V17.6h137.1v130.5c3.4-2.2,6.6-4.6,9.8-7.1V10.3H44.6z"/>
		<path class="st0" d="M247.8,43.7c0-69-55.9-124.9-124.9-124.9S-2-25.3-2,43.7c0,33.5,13.5,65.6,37.4,89.1V-6.3
			c0-14.9,12.1-27,27-27h121c14.9,0,27,12.1,27,27v139.1C234.3,109.3,247.8,77.2,247.8,43.7z"/>
		<path class="st1" d="M183.4-33.3h-121c-14.9,0-27,12.1-27,27c0,0,0,0,0,0v139.1l9.2,8.2V10.3h156.6v130.6c3.2-2.6,6.2-5.3,9.2-8.2
			V-6.3C210.4-21.2,198.3-33.2,183.4-33.3z M146.4-6.8c0,0.4-0.3,0.8-0.7,0.8H100c-0.4,0-0.7-0.4-0.7-0.8v-2.9
			c0-0.4,0.3-0.8,0.7-0.8h45.7c0.4,0,0.7,0.4,0.7,0.8L146.4-6.8z"/>
		<path class="st0" d="M145.7-5.9c0.4,0,0.7-0.4,0.7-0.8v-2.9c0-0.4-0.3-0.8-0.7-0.8H100c-0.4,0-0.7,0.4-0.7,0.8v2.9
			c0,0.4,0.3,0.8,0.7,0.8"/>
		<path class="st2" d="M54.3,17.6v130.5c41.6,27.3,95.4,27.3,137.1,0V17.6H54.3z"/>
		<g>
			<path class="st1" d="M5.4,185h5.3v19.2h9.8v4.9H5.4V185z"/>
			<path class="st1" d="M35.1,184.4c7.5,0,13,4.9,13,12.6s-5.5,12.6-13,12.6s-13-4.9-13-12.6S27.6,184.4,35.1,184.4z M35.1,204.7
				c4.5,0,7.5-3.3,7.5-7.7s-3-7.7-7.5-7.7s-7.5,3.3-7.5,7.7S30.6,204.7,35.1,204.7z"/>
			<path class="st1" d="M51.7,185H61c4.9,0,9.1,1.7,9.1,7.3c0,3.4-1.8,6-5.2,6.6L71,209h-6.4l-5-9.6H57v9.6h-5.3V185z M57,194.9h3.1
				c1.9,0,4.5-0.1,4.5-2.7c0-2.4-2.2-2.8-4.1-2.8H57V194.9z"/>
			<path class="st1" d="M73.9,185h16.3v4.9h-11v4.5h10.4v4.9H79.2v4.9h11.7v4.9h-17V185z"/>
			<path class="st1" d="M95.1,185h8l5.5,15.7h0.1l5.6-15.7h8V209H117v-18.5h-0.1l-6.3,18.5h-4l-6.1-18.5h-0.1V209h-5.3V185z"/>
			<path class="st1" d="M137.2,185h5.3V209h-5.3V185z"/>
			<path class="st1" d="M147.3,185h8.9c5,0,9.1,1.6,9.1,7.3c0,5.6-3.8,7.4-8.9,7.4h-3.9v9.4h-5.3V185z M152.6,195.2h3.5
				c1.9,0,3.7-0.6,3.7-2.9c0-2.5-2.5-2.8-4.6-2.8h-2.7V195.2z"/>
			<path class="st1" d="M180.6,190.9c-0.8-1.1-2.5-1.6-3.8-1.6c-1.5,0-3.6,0.7-3.6,2.5c0,4.4,11.1,1.6,11.1,10
				c0,5.4-4.3,7.9-9.3,7.9c-3.1,0-5.8-0.9-8.1-3l3.8-4.1c1.1,1.4,2.9,2.3,4.6,2.3c1.7,0,3.7-0.8,3.7-2.5c0-4.4-11.3-2-11.3-10.1
				c0-5.1,4.5-7.8,9.2-7.8c2.7,0,5.3,0.7,7.4,2.5L180.6,190.9z"/>
			<path class="st1" d="M208.5,199.8c0,5.7-3.5,9.9-10.1,9.9c-6.7,0-10.2-4.2-10.2-9.9V185h5.3v14.6c0,3,2,5.2,4.9,5.2
				c2.8,0,4.8-2.2,4.8-5.2V185h5.3V199.8z"/>
			<path class="st1" d="M213.4,185h8l5.5,15.7h0.1l5.6-15.7h8V209h-5.3v-18.5h-0.1l-6.3,18.5h-4l-6.1-18.5h-0.1V209h-5.3V185z"/>
		</g>
	</g>
</g>
</svg>
