<svg xmlns="http://www.w3.org/2000/svg" viewBox="0 0 1680 637"><title>maska-opinie-svg</title><g id="Warstwa_2" data-name="Warstwa 2"><g id="Warstwa_1-2" data-name="Warstwa 1"><path d="M1680,0V91.39c-92.46,1.08-167.22,22.58-231.49,37.8-88.58,23.8-158,40.8-220,46.69C1104,186.15,1013.78,163.25,909.7,126.15,806.7,90.29,689.5,44.87,523.13,19.61,440.29,7,346.05-.61,239.12.5q-20,.21-40.71.81c-3.45.08-6.9.22-10.33.36l-10.44.39q-10.47.47-21.12,1l-10.72.56-5.37.31L135,4.25q-10.74.66-21.75,1.42Q91.38,7.23,68.79,9.23,35.17,12.25,0,16.39V0Z"/><path d="M1236.51,607.15c151.1-22.89,305.08-62,443.49-106.38V637H0V561.81c58.14,3.46,121.55,9.2,192,17.46,63.86,7.29,133.24,16.35,208.86,25.49,37.75,4.55,77.1,9.09,118,13.28q15.39,1.56,31,3.06T581.41,624q31.85,2.82,64.85,5.1t67.12,4q34.11,1.71,69.33,2.62t71.45.9q36.24,0,73.44-1.09c49.57-1.45,100.36-4.41,152-9.1q38.73-3.51,78-8.33,9.81-1.22,19.66-2.49T1197,613Q1216.71,610.2,1236.51,607.15Z"/></g></g></svg>