<?xml version="1.0" encoding="utf-8"?>
<!-- Generator: Adobe Illustrator 19.0.0, SVG Export Plug-In . SVG Version: 6.00 Build 0)  -->
<svg version="1.1" id="Warstwa_1" xmlns="http://www.w3.org/2000/svg" xmlns:xlink="http://www.w3.org/1999/xlink" x="0px" y="0px"
	 viewBox="-246 -264.3 859 635" style="enable-background:new -246 -264.3 859 635;" xml:space="preserve">
<style type="text/css">
	.st0{fill:#F4F9FE;}
</style>
<path id="Prostokąt_1_kopia_6" class="st0" d="M-245.4-152.1C-172.8-36.4-100.6,22.7-28.9,35c71.7,13.3,143-20.2,214.2-68.3
	c71.2-48.1,142.2-110.9,213.4-156.1C470-235.5,541.4-264,613-264.3v577.7c-81.1,23.2-159.1,38.5-234.4,47.3
	c-37.7,4.4-74.7,7.2-111.1,8.8c-18.2,0.8-36.3,1.2-54.2,1.3c-4.5,0-9,0-13.4,0c-4.5,0-8.9,0-13.4-0.1c-8.9-0.1-17.8-0.3-26.6-0.5
	c-70.7-1.8-139.5-8.5-206.9-17.2c-67.4-9-133.5-20.1-198.9-37.1c0.1-89.3,0.3-165.5,0.5-242.4C-245.4-2.6-245.3-79.4-245.4-152.1
	L-245.4-152.1L-245.4-152.1z"/>
</svg>
