<svg xmlns="http://www.w3.org/2000/svg" width="320" height="601" viewBox="0 0 320 601">
  <metadata><?xpacket begin="﻿" id="W5M0MpCehiHzreSzNTczkc9d"?>
<x:xmpmeta xmlns:x="adobe:ns:meta/" x:xmptk="Adobe XMP Core 5.6-c142 79.160924, 2017/07/13-01:06:39        ">
   <rdf:RDF xmlns:rdf="http://www.w3.org/1999/02/22-rdf-syntax-ns#">
      <rdf:Description rdf:about=""/>
   </rdf:RDF>
</x:xmpmeta>
                                                                                                    
                                                                                                    
                                                                                                    
                                                                                                    
                                                                                                    
                                                                                                    
                                                                                                    
                                                                                                    
                                                                                                    
                                                                                                    
                                                                                                    
                                                                                                    
                                                                                                    
                                                                                                    
                                                                                                    
                                                                                                    
                                                                                                    
                                                                                                    
                                                                                                    
                                                                                                    
                           
<?xpacket end="w"?></metadata>
<defs>
    <style>
      .cls-1 {
        fill: #f4f9fe;
        fill-rule: evenodd;
      }
    </style>
  </defs>
  <path id="Prostokąt_1_kopia_6" data-name="Prostokąt 1 kopia 6" class="cls-1" d="M411.6,434.16C484.226,549.845,556.4,608.949,628.13,621.319c71.744,13.289,143.047-20.156,214.22-68.285,71.172-48.11,142.214-110.921,213.44-156.138C1127,350.78,1198.4,322.257,1270,322V899.685c-81.14,23.231-159.05,38.542-234.37,47.25-37.665,4.4-74.677,7.242-111.116,8.755q-27.33,1.134-54.241,1.287-6.729.042-13.434,0.025t-13.384-.088q-13.359-.145-26.625-0.509c-70.748-1.822-139.527-8.477-206.946-17.2C542.461,930.2,476.4,919.12,411,902.1c0.087-89.32.33-165.526,0.47-242.38,0.15-76.089.2-152.825,0.133-225.555h0Z" transform="translate(-689 -356)"/>
</svg>
