<svg xmlns="http://www.w3.org/2000/svg" viewBox="0 0 406 486"><defs><style>.cls-1{fill:#1782ac;}.cls-2{fill:#48ada6;}</style></defs><title>brak-kosztow</title><g id="Warstwa_2" data-name="Warstwa 2"><g id="Capa_1" data-name="Capa 1"><path class="cls-1" d="M243,0H35A35,35,0,0,0,0,35V390H6V54H272V70h6V35A35,35,0,0,0,243,0Zm29,48H6V35A29,29,0,0,1,35,6H243a29,29,0,0,1,29,29Z"/><path class="cls-1" d="M0,416v35a35,35,0,0,0,35,35H243a35,35,0,0,0,35-35V416Zm272,35a29,29,0,0,1-29,29H35A29,29,0,0,1,6,451V422H272Z"/><rect class="cls-1" x="104" y="448" width="70" height="6"/><path class="cls-1" d="M326,152V96H64V347a43,43,0,0,0,43,43H363a43,43,0,0,0,43-43V152ZM107,384a37,37,0,0,1-37-37V102H96v16h6V102h26v16h6V102h26v16h6V102h26v16h6V102h26v16h6V102h26v16h6V102h26v16h6V102h26V347a42.87,42.87,0,0,0,11,28.66l7.49,8.34Zm293-37a37,37,0,0,1-74,0V158h74Z"/><path class="cls-1" d="M96,144v86H294V144Zm192,80H102V150H288Z"/><rect class="cls-2" x="96" y="256" width="86" height="6"/><rect class="cls-2" x="208" y="256" width="86" height="6"/><rect class="cls-2" x="96" y="288" width="86" height="6"/><rect class="cls-2" x="208" y="288" width="86" height="6"/><rect class="cls-2" x="96" y="320" width="86" height="6"/><rect class="cls-2" x="208" y="320" width="86" height="6"/><rect class="cls-2" x="96" y="352" width="86" height="6"/><rect class="cls-2" x="208" y="352" width="86" height="6"/></g></g></svg>