<svg xmlns="http://www.w3.org/2000/svg" viewBox="0 0 1680 636.2"><defs><style>.cls-1{fill:#3394ef;}</style></defs><title>opinie-shape-svg</title><g id="Warstwa_2" data-name="Warstwa 2"><g id="Warstwa_1-2" data-name="Warstwa 1"><path class="cls-1" d="M1680,91V500.37c-138.41,44.39-292.38,83.48-443.48,106.37q-19.8,3.06-39.53,5.8-9.87,1.37-19.71,2.65t-19.66,2.49q-39.27,4.82-78,8.33c-51.64,4.69-102.43,7.65-152,9.1q-37.2,1.08-73.44,1.09t-71.45-.9q-35.21-.9-69.33-2.62t-67.12-4q-33-2.28-64.84-5.1-15.93-1.4-31.55-2.89t-31-3.06c-40.9-4.19-80.25-8.73-118-13.28-75.62-9.14-145-18.2-208.85-25.49-70.45-8.26-133.86-14-192-17.46V16q35.17-4.15,68.79-7.16,22.58-2,44.5-3.56,11-.76,21.75-1.42l5.39-.32,5.37-.31,10.72-.56q10.64-.54,21.12-1l10.44-.39C191.55,1.14,195,1,198.45.92q20.66-.6,40.7-.81C346.08-1,440.32,6.59,523.16,19.22,689.52,44.48,806.72,89.9,909.72,125.75c104.08,37.1,194.28,60,318.8,49.73,62-5.89,131.42-22.89,220-46.69C1512.78,113.57,1587.54,92.08,1680,91Z"/></g></g></svg>