<?xml version="1.0" encoding="utf-8"?>
<!-- Generator: Adobe Illustrator 19.0.0, SVG Export Plug-In . SVG Version: 6.00 Build 0)  -->
<svg version="1.1" id="Warstwa_1" xmlns="http://www.w3.org/2000/svg" xmlns:xlink="http://www.w3.org/1999/xlink" x="0px" y="0px"
	 viewBox="711 -276.6 1678.9 693.3" style="enable-background:new 711 -276.6 1678.9 693.3;" xml:space="preserve">
<style type="text/css">
	.st0{fill:#F4F9FE;}
</style>
<path id="Prostokąt_1_kopia_7" class="st0" d="M712.2-154.2c142,126.3,283.2,190.9,423.5,204.4c140.3,14.5,279.8-22,418.9-74.6
	c139.2-52.5,278.1-121.1,417.4-170.5c139.3-50.4,278.9-81.5,418.9-81.8v630.8c-158.7,25.4-311.1,42.1-458.4,51.6
	c-73.7,4.8-146.1,8-217.3,9.6c-35.6,0.8-71,1.3-106.1,1.4c-8.8,0-17.5,0-26.3,0c-8.7,0-17.5-0.1-26.2-0.1
	c-17.4-0.1-34.8-0.3-52.1-0.5c-138.4-2-272.9-9.3-404.7-18.8c-131.9-9.8-261.1-21.9-389-40.5c0.2-97.5,0.6-180.7,0.9-264.6
	C712.2,9.1,712.3-74.7,712.2-154.2L712.2-154.2L712.2-154.2z"/>
</svg>
