<svg xmlns="http://www.w3.org/2000/svg" width="1678.938" height="693.34" viewBox="0 0 1678.938 693.34">
  <metadata><?xpacket begin="﻿" id="W5M0MpCehiHzreSzNTczkc9d"?>
<x:xmpmeta xmlns:x="adobe:ns:meta/" x:xmptk="Adobe XMP Core 5.6-c142 79.160924, 2017/07/13-01:06:39        ">
   <rdf:RDF xmlns:rdf="http://www.w3.org/1999/02/22-rdf-syntax-ns#">
      <rdf:Description rdf:about=""/>
   </rdf:RDF>
</x:xmpmeta>
                                                                                                    
                                                                                                    
                                                                                                    
                                                                                                    
                                                                                                    
                                                                                                    
                                                                                                    
                                                                                                    
                                                                                                    
                                                                                                    
                                                                                                    
                                                                                                    
                                                                                                    
                                                                                                    
                                                                                                    
                                                                                                    
                                                                                                    
                                                                                                    
                                                                                                    
                                                                                                    
                           
<?xpacket end="w"?></metadata>
<defs>
    <style>
      .cls-1 {
        fill: #f4f9fe;
        fill-rule: evenodd;
      }
    </style>
  </defs>
  <path id="Prostokąt_1_kopia_7" data-name="Prostokąt 1 kopia 7" class="cls-1" d="M2.24,5622.46c142.03,126.32,283.178,190.85,423.463,204.36,140.309,14.51,279.755-22.01,418.946-74.56,139.191-52.53,278.131-121.11,417.421-170.48,139.27-50.36,278.9-81.5,418.93-81.78v630.76c-158.68,25.37-311.06,42.09-458.36,51.59q-110.49,7.2-217.3,9.56-53.456,1.245-106.082,1.41-13.161.045-26.272,0.03-13.111-.03-26.175-0.1-26.128-.165-52.07-0.55c-138.362-1.99-272.873-9.26-404.723-18.79-131.858-9.83-261.055-21.93-388.958-40.52,0.171-97.52.646-180.73,0.919-264.64,0.294-83.08.386-166.87,0.26-246.29h0Z" transform="translate(-1.063 -5500)"/>
</svg>
