<svg xmlns="http://www.w3.org/2000/svg" viewBox="0 0 390 486"><defs><style>.cls-1{fill:#1782ac;}.cls-2{fill:#48ada6;}</style></defs><title>oszczednosc-czasu</title><g id="Warstwa_2" data-name="Warstwa 2"><g id="Capa_1" data-name="Capa 1"><path class="cls-1" d="M243,0H35A35,35,0,0,0,0,35V390H6V54H272V86h6V35A35,35,0,0,0,243,0Zm29,48H6V35A29,29,0,0,1,35,6H243a29,29,0,0,1,29,29Z"/><path class="cls-1" d="M0,416v35a35,35,0,0,0,35,35H243a35,35,0,0,0,35-35V416Zm272,35a29,29,0,0,1-29,29H35A29,29,0,0,1,6,451V422H272Z"/><rect class="cls-1" x="104" y="448" width="70" height="6"/><path class="cls-1" d="M219,104c-72.23,0-131,58.77-131,131s58.77,131,131,131,131-58.77,131-131S291.23,104,219,104Zm0,256A125,125,0,1,1,344,235,125.14,125.14,0,0,1,219,360Z"/><path class="cls-1" d="M219,136a99,99,0,1,0,99,99A99.11,99.11,0,0,0,219,136Zm-93.33,96L128,233.4l84.65,49.38-46,26.63-1.87,1.09-2.66-2.06a93,93,0,0,1-35.82-67ZM312.33,238,310,236.6l-84.45-49.27,45.82-26.73,1.87-1.09,2.67,2.07a93.08,93.08,0,0,1,35.79,67ZM256,257.69l-37.35,21.63L182,257.94V212.73l37.57-21.92L256,212.06Zm12-102.11-2.32,1.35L182,205.78V149.7l3.17-1.24a91.86,91.86,0,0,1,74.48,3Zm-99.78,1.57,7.74-5.06V254.44l-47.61-27.77-1.87-1.09.46-3.32A93,93,0,0,1,168.26,157.15ZM170,314.43l2.34-1.35L256,264.62V320.3l-3.17,1.24a91.88,91.88,0,0,1-74.43-3Zm99.78-1.58L262,317.91V215.56l47.61,27.77,1.87,1.09-.45,3.32A93.09,93.09,0,0,1,269.74,312.85Z"/><path class="cls-1" d="M219,216a19,19,0,1,0,19,19A19,19,0,0,0,219,216Zm0,32a13,13,0,1,1,13-13A13,13,0,0,1,219,248Z"/><rect class="cls-1" x="272" y="384" width="6" height="6"/><rect class="cls-2" x="320" y="48" width="6" height="6"/><rect class="cls-2" x="320" y="80" width="6" height="6"/><rect class="cls-2" x="336" y="64" width="6" height="6"/><rect class="cls-2" x="304" y="64" width="6" height="6"/><rect class="cls-2" x="72" y="352" width="6" height="6"/><rect class="cls-2" x="72" y="384" width="6" height="6"/><rect class="cls-2" x="88" y="368" width="6" height="6"/><rect class="cls-2" x="56" y="368" width="6" height="6"/><rect class="cls-2" x="368" y="112" width="6" height="6"/><rect class="cls-2" x="368" y="144" width="6" height="6"/><rect class="cls-2" x="384" y="128" width="6" height="6"/><rect class="cls-2" x="352" y="128" width="6" height="6"/><rect class="cls-2" x="48" y="136" width="6" height="6"/><rect class="cls-2" x="48" y="168" width="6" height="6"/><rect class="cls-2" x="64" y="152" width="6" height="6"/><rect class="cls-2" x="32" y="152" width="6" height="6"/></g></g></svg>