<svg xmlns="http://www.w3.org/2000/svg" viewBox="0 0 486 486"><defs><style>.cls-1{fill:#1782ac;}</style></defs><title>Zasób 1</title><g id="Warstwa_2" data-name="Warstwa 2"><g id="Warstwa_1-2" data-name="Warstwa 1"><g id="Warstwa_2-2" data-name="Warstwa 2"><g id="Warstwa_1-2-2" data-name="Warstwa 1-2"><rect class="cls-1" x="376" y="384" width="6" height="6"/><path class="cls-1" d="M347,0H139a35,35,0,0,0-35,35V70h6V54H376V70h6V35A35,35,0,0,0,347,0Zm29,48H110V35A29,29,0,0,1,139,6H347a29,29,0,0,1,29,29Z"/><rect class="cls-1" x="104" y="384" width="6" height="6"/><path class="cls-1" d="M104,416v35a35,35,0,0,0,35,35H347a35,35,0,0,0,35-35V416Zm272,35a29,29,0,0,1-29,29H139a29,29,0,0,1-29-29h0V422H376Z"/><path class="cls-1" d="M0,96V358H486V96Zm134,6H368v74H313l-1.32-3a74.92,74.92,0,0,0-137.38,0l-1.3,3H134ZM315.92,230H432v42H288.6l16.8-25.2a73.75,73.75,0,0,0,7-13.67l1.26-3.13h2.25m-63,84.68a12.19,12.19,0,0,1-19.88,0l-47.47-71.19A68.83,68.83,0,0,1,174,205.2V203a69,69,0,0,1,138,0v2.2a68.88,68.88,0,0,1-11.59,38.28ZM6,102H80v74H6Zm0,80H86V102h42v80h42.74l-1.22,6A74.85,74.85,0,0,0,168,203v2.2a74.93,74.93,0,0,0,1.25,12.94l1,5.86H6Zm98,170H6V278h98Zm48,0H110V272H6V230H172.34l1.26,3.13a73.75,73.75,0,0,0,7,13.67L197.4,272H152Zm120,0H158V278h43.4l26.66,40a18,18,0,0,0,29.88,0L272,296.9Zm160,0H326V326H432Zm48,0H438V320H320v32H278V287.93l6.6-9.93H438V224H315.74l1-5.86A74.94,74.94,0,0,0,318,205.2V203a75.57,75.57,0,0,0-1.51-15l-1.23-6H374V102h42v80h64Zm0-176H422V102h58Z"/><path class="cls-1" d="M243,160a43,43,0,1,0,43,43A43,43,0,0,0,243,160Zm0,80a37,37,0,1,1,37-37,37,37,0,0,1-37,37Z"/><rect class="cls-1" x="144" y="384" width="6" height="6"/><rect class="cls-1" x="176" y="384" width="6" height="6"/><rect class="cls-1" x="208" y="384" width="6" height="6"/><rect class="cls-1" x="240" y="384" width="6" height="6"/><rect class="cls-1" x="272" y="384" width="6" height="6"/><rect class="cls-1" x="304" y="384" width="6" height="6"/><rect class="cls-1" x="336" y="384" width="6" height="6"/><rect class="cls-1" x="193" y="448.5" width="99.97" height="6"/></g></g></g></g></svg>