<svg xmlns="http://www.w3.org/2000/svg" width="1680" height="693" viewBox="0 0 1680 693">
  <metadata><?xpacket begin="﻿" id="W5M0MpCehiHzreSzNTczkc9d"?>
<x:xmpmeta xmlns:x="adobe:ns:meta/" x:xmptk="Adobe XMP Core 5.6-c142 79.160924, 2017/07/13-01:06:39        ">
   <rdf:RDF xmlns:rdf="http://www.w3.org/1999/02/22-rdf-syntax-ns#">
      <rdf:Description rdf:about=""/>
   </rdf:RDF>
</x:xmpmeta>
                                                                                                    
                                                                                                    
                                                                                                    
                                                                                                    
                                                                                                    
                                                                                                    
                                                                                                    
                                                                                                    
                                                                                                    
                                                                                                    
                                                                                                    
                                                                                                    
                                                                                                    
                                                                                                    
                                                                                                    
                                                                                                    
                                                                                                    
                                                                                                    
                                                                                                    
                                                                                                    
                           
<?xpacket end="w"?></metadata>
<defs>
    <style>
      .cls-1 {
        fill: #f4f9fe;
        fill-rule: evenodd;
      }
    </style>
  </defs>
  <path id="Prostokąt_1_kopia_6" data-name="Prostokąt 1 kopia 6" class="cls-1" d="M0.178,1121.4c142.12,126.26,283.357,190.76,423.73,204.26,140.4,14.5,279.933-22,419.212-74.52s278.3-121.06,417.69-170.4c139.35-50.33,279.07-81.46,419.19-81.74v630.45c-158.78,25.35-311.25,42.06-458.65,51.57q-110.55,7.185-217.44,9.55-53.485,1.245-106.147,1.4-13.168.06-26.288,0.03-13.119-.015-26.192-0.09-26.144-.165-52.1-0.56c-138.449-1.99-273.045-9.25-404.979-18.78-131.941-9.82-261.219-21.91-389.2-40.49,0.171-97.48.646-180.64,0.92-264.52,0.294-83.04.386-166.78,0.26-246.16h0Z" transform="translate(0 -999)"/>
</svg>
