<?xml version="1.0" encoding="utf-8"?>
<!-- Generator: Adobe Illustrator 19.0.0, SVG Export Plug-In . SVG Version: 6.00 Build 0)  -->
<svg version="1.1" id="Warstwa_1" xmlns="http://www.w3.org/2000/svg" xmlns:xlink="http://www.w3.org/1999/xlink" x="0px" y="0px"
	 viewBox="712 -276.3 1680 693" style="enable-background:new 712 -276.3 1680 693;" xml:space="preserve">
<style type="text/css">
	.st0{fill:#F4F9FE;}
</style>
<path id="Prostokąt_1_kopia_6" class="st0" d="M712.2-153.9C854.3-27.6,995.5,36.9,1135.9,50.4c140.4,14.5,279.9-22,419.2-74.5
	s278.3-121.1,417.7-170.4c139.4-50.3,279.1-81.5,419.2-81.7v630.4c-158.8,25.3-311.3,42.1-458.7,51.6c-73.7,4.8-146.2,8-217.4,9.6
	c-35.7,0.8-71,1.3-106.1,1.4c-8.8,0-17.5,0.1-26.3,0c-8.7,0-17.5,0-26.2-0.1c-17.4-0.1-34.8-0.3-52.1-0.6c-138.4-2-273-9.3-405-18.8
	C968.3,387.5,839,375.4,711,356.8c0.2-97.5,0.6-180.6,0.9-264.5C712.2,9.2,712.3-74.5,712.2-153.9L712.2-153.9L712.2-153.9z"/>
</svg>
